<svg xmlns="http://www.w3.org/2000/svg" xmlns:xlink="http://www.w3.org/1999/xlink" width="800" height="70" style="background-color:white" viewBox ="0 0 800 70" class="WaveDrom"><g transform="translate(0.5,0.5)" text-anchor="middle" font-size="14" font-family="sans-serif" font-weight="normal"><g transform="translate(4,21)"><g stroke="black" stroke-width="1" stroke-linecap="round"><line x2="791"></line><line y2="31"></line><line x2="791" y1="31" y2="31"></line><line x1="791" x2="791" y2="31"></line><line x1="742" x2="742" y2="31"></line><line x1="692" x2="692" y2="31"></line><line x1="643" x2="643" y2="31"></line><line x1="593" x2="593" y2="31"></line><line x1="544" x2="544" y2="31"></line><line x1="494" x2="494" y2="31"></line><line x1="445" x2="445" y2="31"></line><line x1="396" x2="396" y2="31"></line><line x1="346" x2="346" y2="3"></line><line x1="346" x2="346" y1="31" y2="28"></line><line x1="297" x2="297" y2="3"></line><line x1="297" x2="297" y1="31" y2="28"></line><line x1="247" x2="247" y2="3"></line><line x1="247" x2="247" y1="31" y2="28"></line><line x1="198" x2="198" y2="31"></line><line x1="148" x2="148" y2="3"></line><line x1="148" x2="148" y1="31" y2="28"></line><line x1="99" x2="99" y2="3"></line><line x1="99" x2="99" y1="31" y2="28"></line><line x1="49" x2="49" y2="3"></line><line x1="49" x2="49" y1="31" y2="28"></line></g><g><g><rect x="742" width="49" height="31" field="7" style="fill-opacity:0.1;fill:hsl(170,100%,50%)"></rect><rect x="692" width="49" height="31" field="6" style="fill-opacity:0.1;fill:hsl(170,100%,50%)"></rect><rect x="643" width="49" height="31" field="5" style="fill-opacity:0.1;fill:hsl(170,100%,50%)"></rect><rect x="593" width="49" height="31" field="4" style="fill-opacity:0.1;fill:hsl(170,100%,50%)"></rect><rect x="544" width="49" height="31" field="3" style="fill-opacity:0.1;fill:hsl(170,100%,50%)"></rect><rect x="494" width="49" height="31" field="2" style="fill-opacity:0.1;fill:hsl(170,100%,50%)"></rect><rect x="445" width="49" height="31" field="1" style="fill-opacity:0.1;fill:hsl(170,100%,50%)"></rect><rect x="396" width="49" height="31" field="0" style="fill-opacity:0.1;fill:hsl(170,100%,50%)"></rect><rect x="198" width="198" height="31" field="foreground color index" style="fill-opacity:0.1;fill:hsl(45,100%,50%)"></rect><rect width="198" height="31" field="background color index" style="fill-opacity:0.1;fill:hsl(0,100%,50%)"></rect></g><g transform="translate(25,-11)"><g transform="translate(742)"><text y="6">0</text></g><g transform="translate(692)"><text y="6">1</text></g><g transform="translate(643)"><text y="6">2</text></g><g transform="translate(593)"><text y="6">3</text></g><g transform="translate(544)"><text y="6">4</text></g><g transform="translate(494)"><text y="6">5</text></g><g transform="translate(445)"><text y="6">6</text></g><g transform="translate(396)"><text y="6">7</text></g><g transform="translate(346)"><text y="6">8</text></g><g transform="translate(198)"><text y="6">11</text></g><g transform="translate(148)"><text y="6">12</text></g><g transform="translate(0)"><text y="6">15</text></g></g><g transform="translate(25,15)"><g transform="translate(742)"><text y="6"><tspan>7</tspan></text></g><g transform="translate(692)"><text y="6"><tspan>6</tspan></text></g><g transform="translate(643)"><text y="6"><tspan>5</tspan></text></g><g transform="translate(593)"><text y="6"><tspan>4</tspan></text></g><g transform="translate(544)"><text y="6"><tspan>3</tspan></text></g><g transform="translate(494)"><text y="6"><tspan>2</tspan></text></g><g transform="translate(445)"><text y="6"><tspan>1</tspan></text></g><g transform="translate(396)"><text y="6"><tspan>0</tspan></text></g><g transform="translate(272)"><text y="6"><tspan>foreground color index</tspan></text></g><g transform="translate(74)"><text y="6"><tspan>background color index</tspan></text></g></g><g transform="translate(25,39)"><g><g transform="translate(593)"><text y="6"><tspan>one bit per pixel, MSB on left</tspan></text></g></g><g><g transform="translate(272)"><text y="6"><tspan>used for one bits in word</tspan></text></g></g><g><g transform="translate(74)"><text y="6"><tspan>used for zero bits in word</tspan></text></g></g></g></g></g></g></svg>