<svg xmlns="http://www.w3.org/2000/svg" xmlns:xlink="http://www.w3.org/1999/xlink" width="800" height="126" viewBox="0 0 800 126" class="WaveDrom"><g transform="translate(0.5,0.5)" text-anchor="middle" font-size="14" font-family="sans-serif" font-weight="normal"><g transform="translate(4,21)"><g stroke="black" stroke-width="1" stroke-linecap="round"><line x2="791"></line><line y2="31"></line><line x2="791" y1="31" y2="31"></line><line x1="791" x2="791" y2="31"></line><line x1="742" x2="742" y2="3"></line><line x1="742" x2="742" y1="31" y2="28"></line><line x1="692" x2="692" y2="3"></line><line x1="692" x2="692" y1="31" y2="28"></line><line x1="643" x2="643" y2="3"></line><line x1="643" x2="643" y1="31" y2="28"></line><line x1="593" x2="593" y2="31"></line><line x1="544" x2="544" y2="3"></line><line x1="544" x2="544" y1="31" y2="28"></line><line x1="494" x2="494" y2="3"></line><line x1="494" x2="494" y1="31" y2="28"></line><line x1="445" x2="445" y2="3"></line><line x1="445" x2="445" y1="31" y2="28"></line><line x1="396" x2="396" y2="31"></line><line x1="346" x2="346" y2="3"></line><line x1="346" x2="346" y1="31" y2="28"></line><line x1="297" x2="297" y2="3"></line><line x1="297" x2="297" y1="31" y2="28"></line><line x1="247" x2="247" y2="3"></line><line x1="247" x2="247" y1="31" y2="28"></line><line x1="198" x2="198" y2="31"></line><line x1="148" x2="148" y2="3"></line><line x1="148" x2="148" y1="31" y2="28"></line><line x1="99" x2="99" y2="3"></line><line x1="99" x2="99" y1="31" y2="28"></line><line x1="49" x2="49" y2="3"></line><line x1="49" x2="49" y1="31" y2="28"></line></g><g><g><rect x="593" width="198" height="31" field="blue value" style="fill-opacity:0.1;fill:hsl(170,100%,50%)"></rect><rect x="396" width="198" height="31" field="green value" style="fill-opacity:0.1;fill:hsl(80,100%,50%)"></rect><rect x="198" width="198" height="31" field="red value" style="fill-opacity:0.1;fill:hsl(0,100%,50%)"></rect><rect width="198" height="31" field="alpha value" style="fill-opacity:0.1"></rect></g><g transform="translate(25,-11)"><g transform="translate(742)"><text y="6">0</text></g><g transform="translate(593)"><text y="6">3</text></g><g transform="translate(544)"><text y="6">4</text></g><g transform="translate(396)"><text y="6">7</text></g><g transform="translate(346)"><text y="6">8</text></g><g transform="translate(198)"><text y="6">11</text></g><g transform="translate(148)"><text y="6">12</text></g><g transform="translate(0)"><text y="6">15</text></g></g><g transform="translate(25,15)"><g transform="translate(667)"><text y="6"><tspan>blue value</tspan></text></g><g transform="translate(470)"><text y="6"><tspan>green value</tspan></text></g><g transform="translate(272)"><text y="6"><tspan>red value</tspan></text></g><g transform="translate(74)"><text y="6"><tspan>alpha value</tspan></text></g></g><g transform="translate(25,39)"><g><g transform="translate(667)"><text y="6"><tspan>color blue</tspan></text></g><g transform="translate(667,14)"><text y="6"><tspan>$0 to $F</tspan></text></g></g><g><g transform="translate(470)"><text y="6"><tspan>color green</tspan></text></g><g transform="translate(470,14)"><text y="6"><tspan>$0 to $F</tspan></text></g><g transform="translate(470,28)"><text y="6"><tspan></tspan></text></g><g transform="translate(470,42)"><text y="6"><tspan>color black = $000 to white = $FFF (4096 total colors)</tspan></text></g></g><g><g transform="translate(272)"><text y="6"><tspan>color red</tspan></text></g><g transform="translate(272,14)"><text y="6"><tspan>$0 to $F</tspan></text></g></g><g><g transform="translate(74)"><text y="6"><tspan>In A (using blend value in B):</tspan></text></g><g transform="translate(74,14)"><text y="6"><tspan>00xx = blend A and B</tspan></text></g><g transform="translate(74,28)"><text y="6"><tspan>01xx = blend A and black</tspan></text></g><g transform="translate(74,42)"><text y="6"><tspan>10xx = additive A and B</tspan></text></g><g transform="translate(74,56)"><text y="6"><tspan>11xx = use color A only</tspan></text></g></g></g></g></g></g></svg>