<svg xmlns="http://www.w3.org/2000/svg" xmlns:xlink="http://www.w3.org/1999/xlink" width="800" height="70" style="background-color:white" viewBox="0 0 800 70" class="WaveDrom"><g transform="translate(0.5,0.5)" text-anchor="middle" font-size="14" font-family="sans-serif" font-weight="normal"><g transform="translate(4,14)"><g stroke="black" stroke-width="1" stroke-linecap="round"><line x2="791"></line><line y2="26"></line><line x2="791" y1="26" y2="26"></line><line x1="791" x2="791" y2="26"></line><line x1="742" x2="742" y2="3"></line><line x1="742" x2="742" y1="26" y2="23"></line><line x1="692" x2="692" y2="3"></line><line x1="692" x2="692" y1="26" y2="23"></line><line x1="643" x2="643" y2="3"></line><line x1="643" x2="643" y1="26" y2="23"></line><line x1="593" x2="593" y2="26"></line><line x1="544" x2="544" y2="3"></line><line x1="544" x2="544" y1="26" y2="23"></line><line x1="494" x2="494" y2="3"></line><line x1="494" x2="494" y1="26" y2="23"></line><line x1="445" x2="445" y2="3"></line><line x1="445" x2="445" y1="26" y2="23"></line><line x1="396" x2="396" y2="26"></line><line x1="346" x2="346" y2="26"></line><line x1="297" x2="297" y2="26"></line><line x1="247" x2="247" y2="3"></line><line x1="247" x2="247" y1="26" y2="23"></line><line x1="198" x2="198" y2="3"></line><line x1="198" x2="198" y1="26" y2="23"></line><line x1="148" x2="148" y2="3"></line><line x1="148" x2="148" y1="26" y2="23"></line><line x1="99" x2="99" y2="3"></line><line x1="99" x2="99" y1="26" y2="23"></line><line x1="49" x2="49" y2="3"></line><line x1="49" x2="49" y1="26" y2="23"></line></g><g><g><rect x="593" width="198" height="26" style="fill-opacity:0.1;fill:hsl(170,100%,50%)"></rect><rect x="396" width="198" height="26" style="fill-opacity:0.1"></rect><rect x="346" width="49" height="26" style="fill-opacity:0.1;fill:hsl(45,100%,50%)"></rect><rect x="297" width="49" height="26" style="fill-opacity:0.1;fill:hsl(0,100%,50%)"></rect><rect width="297" height="26" style="fill-opacity:0.1;fill:hsl(126,100%,50%)"></rect></g><g transform="translate(25,-3)"><text x="742">0</text><text x="593">3</text><text x="544">4</text><text x="396">7</text><text x="346">8</text><text x="297">9</text><text x="247">10</text><text>15</text></g><g transform="translate(25,18)"><text x="667"><tspan>tile height</tspan></text><text x="346"><tspan>tile</tspan></text><text x="297"><tspan>display</tspan></text><text x="124"><tspan>tile base address</tspan></text></g><g transform="translate(25,39)"><g><text x="667"><tspan>(height-1, stored as 8 or 16)</tspan></text><text x="667" y="14"><tspan>(but truncated at height)</tspan></text></g><g><text x="346"><tspan>0=tile</tspan></text><text x="346" y="14"><tspan>1=vram</tspan></text></g><g><text x="297"><tspan>0=vram</tspan></text><text x="297" y="14"><tspan>1=tile</tspan></text></g><g><text x="124"><tspan>(1K word boundary 8x8)</tspan></text><text x="124" y="14"><tspan>(2K word boundary 8x16)</tspan></text></g></g></g></g></g></svg>