<svg xmlns="http://www.w3.org/2000/svg" xmlns:xlink="http://www.w3.org/1999/xlink" width="800" height="196" style="background-color:white" viewBox="0 0 800 196" class="WaveDrom"><g transform="translate(0.5,0.5)" text-anchor="middle" font-size="14" font-family="sans-serif" font-weight="normal"><g transform="translate(4,21)"><g stroke="black" stroke-width="1" stroke-linecap="round"><line x2="791"></line><line y2="31"></line><line x2="791" y1="31" y2="31"></line><line x1="791" x2="791" y2="31"></line><line x1="742" x2="742" y2="3"></line><line x1="742" x2="742" y1="31" y2="28"></line><line x1="692" x2="692" y2="3"></line><line x1="692" x2="692" y1="31" y2="28"></line><line x1="643" x2="643" y2="3"></line><line x1="643" x2="643" y1="31" y2="28"></line><line x1="593" x2="593" y2="3"></line><line x1="593" x2="593" y1="31" y2="28"></line><line x1="544" x2="544" y2="3"></line><line x1="544" x2="544" y1="31" y2="28"></line><line x1="494" x2="494" y2="3"></line><line x1="494" x2="494" y1="31" y2="28"></line><line x1="445" x2="445" y2="3"></line><line x1="445" x2="445" y1="31" y2="28"></line><line x1="396" x2="396" y2="3"></line><line x1="396" x2="396" y1="31" y2="28"></line><line x1="346" x2="346" y2="3"></line><line x1="346" x2="346" y1="31" y2="28"></line><line x1="297" x2="297" y2="3"></line><line x1="297" x2="297" y1="31" y2="28"></line><line x1="247" x2="247" y2="3"></line><line x1="247" x2="247" y1="31" y2="28"></line><line x1="198" x2="198" y2="3"></line><line x1="198" x2="198" y1="31" y2="28"></line><line x1="148" x2="148" y2="3"></line><line x1="148" x2="148" y1="31" y2="28"></line><line x1="99" x2="99" y2="31"></line><line x1="49" x2="49" y2="3"></line><line x1="49" x2="49" y1="31" y2="28"></line></g><g><g><rect x="99" width="692" height="31" field="XR register number / XR memory offset" style="fill-opacity:0.1;fill:hsl(170,100%,50%)"></rect><rect width="99" height="31" field="region" style="fill-opacity:0.1;fill:hsl(0,100%,50%)"></rect></g><g transform="translate(25,-11)"><g transform="translate(742)"><text y="6">0</text></g><g transform="translate(99)"><text y="6">13</text></g><g transform="translate(49)"><text y="6">14</text></g><g transform="translate(0)"><text y="6">15</text></g></g><g transform="translate(25,15)"><g transform="translate(420)"><text y="6"><tspan>XR register number / XR memory offset</tspan></text></g><g transform="translate(25)"><text y="6"><tspan>region</tspan></text></g></g><g transform="translate(25,39)"><g><g transform="translate(420)"><text y="6"><tspan>video/config xregs</tspan></text></g><g transform="translate(420,14)"><text y="6"><tspan>video playfield A xregs</tspan></text></g><g transform="translate(420,28)"><text y="6"><tspan>video playfield B xregs</tspan></text></g><g transform="translate(420,42)"><text y="6"><tspan>audio control xregs (write only)</tspan></text></g><g transform="translate(420,56)"><text y="6"><tspan>blitter unit xregs (write only)</tspan></text></g><g transform="translate(420,70)"><text y="6"><tspan>5K-word tile/tilemap/audio memory</tspan></text></g><g transform="translate(420,84)"><text y="6"><tspan>256-word color A look-up memory</tspan></text></g><g transform="translate(420,98)"><text y="6"><tspan>256-word color B look-up memory</tspan></text></g><g transform="translate(420,112)"><text y="6"><tspan>256-word pointer sprite memory 32x32x4-bit (write only)</tspan></text></g><g transform="translate(420,126)"><text y="6"><tspan>1.5K-word copper memory</tspan></text></g></g><g><g transform="translate(25)"><text y="6"><tspan>00 $0000-$000F</tspan></text></g><g transform="translate(25,14)"><text y="6"><tspan>00 $0010-$0017</tspan></text></g><g transform="translate(25,28)"><text y="6"><tspan>00 $0000-$007F</tspan></text></g><g transform="translate(25,42)"><text y="6"><tspan>00 $0020-$002F</tspan></text></g><g transform="translate(25,56)"><text y="6"><tspan>00 $0040-$004F</tspan></text></g><g transform="translate(25,70)"><text y="6"><tspan>01 $4000-$53FF</tspan></text></g><g transform="translate(25,84)"><text y="6"><tspan>10 $8000-$80FF</tspan></text></g><g transform="translate(25,98)"><text y="6"><tspan>10 $8100-$81FF</tspan></text></g><g transform="translate(25,112)"><text y="6"><tspan>10 $8200-$82FF</tspan></text></g><g transform="translate(25,126)"><text y="6"><tspan>11 $C000-$C5FF</tspan></text></g></g></g></g></g></g></svg>