<svg xmlns="http://www.w3.org/2000/svg" xmlns:xlink="http://www.w3.org/1999/xlink" width="800" height="98" style="background-color:white" viewBox="0 0 800 98" class="WaveDrom"><g transform="translate(0.5,0.5)" text-anchor="middle" font-size="14" font-family="sans-serif" font-weight="normal"><g transform="translate(4,14)"><g stroke="black" stroke-width="1" stroke-linecap="round"><line x2="791"></line><line y2="26"></line><line x2="791" y1="26" y2="26"></line><line x1="791" x2="791" y2="26"></line><line x1="742" x2="742" y2="3"></line><line x1="742" x2="742" y1="26" y2="23"></line><line x1="692" x2="692" y2="3"></line><line x1="692" x2="692" y1="26" y2="23"></line><line x1="643" x2="643" y2="3"></line><line x1="643" x2="643" y1="26" y2="23"></line><line x1="593" x2="593" y2="26"></line><line x1="544" x2="544" y2="26"></line><line x1="494" x2="494" y2="26"></line><line x1="445" x2="445" y2="26"></line><line x1="396" x2="396" y2="26"></line><line x1="346" x2="346" y2="3"></line><line x1="346" x2="346" y1="26" y2="23"></line><line x1="297" x2="297" y2="3"></line><line x1="297" x2="297" y1="26" y2="23"></line><line x1="247" x2="247" y2="3"></line><line x1="247" x2="247" y1="26" y2="23"></line><line x1="198" x2="198" y2="26"></line><line x1="148" x2="148" y2="3"></line><line x1="148" x2="148" y1="26" y2="23"></line><line x1="99" x2="99" y2="26"></line><line x1="49" x2="49" y2="3"></line><line x1="49" x2="49" y1="26" y2="23"></line></g><g><g><rect x="593" width="198" height="26" style="fill-opacity:0.1;fill:hsl(170,100%,50%)"></rect><rect x="544" width="49" height="26" style="fill-opacity:0.1;fill:hsl(80,100%,50%)"></rect><rect x="494" width="49" height="26" style="fill-opacity:0.1;fill:hsl(126,100%,50%)"></rect><rect x="445" width="49" height="26" style="fill-opacity:0.1;fill:hsl(0,100%,50%)"></rect><rect x="396" width="49" height="26" style="fill-opacity:0.1"></rect><rect x="198" width="198" height="26" style="fill-opacity:0.1;fill:hsl(170,100%,50%)"></rect><rect x="99" width="99" height="26" style="fill-opacity:0.1;fill:hsl(80,100%,50%)"></rect><rect width="99" height="26" style="fill-opacity:0.1"></rect></g><g transform="translate(25,-3)"><text x="742">0</text><text x="593">3</text><text x="544">4</text><text x="494">5</text><text x="445">6</text><text x="396">7</text><text x="346">8</text><text x="198">11</text><text x="148">12</text><text x="99">13</text><text x="49">14</text><text>15</text></g><g transform="translate(25,18)"><text x="667"><tspan>monitor resolution</tspan></text><text x="544"><tspan>COPP</tspan></text><text x="494"><tspan>BLIT</tspan></text><text x="445"><tspan>PF_B</tspan></text><g><text x="396">0</text></g><text x="272"><tspan>audio channels</tspan></text><text x="124"><tspan>config</tspan></text><g><text x="49">0</text><text>0</text></g></g><g transform="translate(25,39)"><g><text x="667"><tspan>0x0 = 640x480</tspan></text><text x="667" y="14"><tspan>0x1 = 848x480</tspan></text><text x="667" y="28"><tspan>(others reserved)</tspan></text></g><g><text x="544"><tspan>copper</tspan></text></g><g><text x="494"><tspan>blitter</tspan></text></g><g><text x="445"><tspan>2nd</tspan></text><text x="445" y="14"><tspan>playfield</tspan></text><text x="445" y="28"><tspan>B</tspan></text></g><g><text x="272"><tspan>number of</tspan></text><text x="272" y="14"><tspan>audio channels</tspan></text><text x="272" y="28"><tspan>0-4</tspan></text></g><g><text x="124"><tspan>FPGA</tspan></text><text x="124" y="14"><tspan>config</tspan></text><text x="124" y="28"><tspan>number</tspan></text><text x="124" y="42"><tspan>0-3</tspan></text></g></g></g></g></g></svg>