<svg xmlns="http://www.w3.org/2000/svg" xmlns:xlink="http://www.w3.org/1999/xlink" width="800" height="98" viewBox="0 0 800 98" class="WaveDrom"><g transform="translate(0.5,0.5)" text-anchor="middle" font-size="14" font-family="sans-serif" font-weight="normal"><g transform="translate(4,14)"><g stroke="black" stroke-width="1" stroke-linecap="round"><line x2="791"></line><line y2="26"></line><line x2="791" y1="26" y2="26"></line><line x1="791" x2="791" y2="26"></line><line x1="742" x2="742" y2="3"></line><line x1="742" x2="742" y1="26" y2="23"></line><line x1="692" x2="692" y2="3"></line><line x1="692" x2="692" y1="26" y2="23"></line><line x1="643" x2="643" y2="3"></line><line x1="643" x2="643" y1="26" y2="23"></line><line x1="593" x2="593" y2="3"></line><line x1="593" x2="593" y1="26" y2="23"></line><line x1="544" x2="544" y2="3"></line><line x1="544" x2="544" y1="26" y2="23"></line><line x1="494" x2="494" y2="3"></line><line x1="494" x2="494" y1="26" y2="23"></line><line x1="445" x2="445" y2="3"></line><line x1="445" x2="445" y1="26" y2="23"></line><line x1="396" x2="396" y2="26"></line><line x1="346" x2="346" y2="3"></line><line x1="346" x2="346" y1="26" y2="23"></line><line x1="297" x2="297" y2="3"></line><line x1="297" x2="297" y1="26" y2="23"></line><line x1="247" x2="247" y2="3"></line><line x1="247" x2="247" y1="26" y2="23"></line><line x1="198" x2="198" y2="26"></line><line x1="148" x2="148" y2="3"></line><line x1="148" x2="148" y1="26" y2="23"></line><line x1="99" x2="99" y2="26"></line><line x1="49" x2="49" y2="26"></line></g><g><g><rect x="396" width="396" height="26" style="fill-opacity:0.1;fill:hsl(170,100%,50%)"></rect><rect x="198" width="198" height="26" style="fill-opacity:0.1;fill:hsl(45,100%,50%)"></rect><rect x="99" width="99" height="26" style="fill-opacity:0.1;fill:hsl(0,100%,50%)"></rect><rect x="49" width="49" height="26" style="fill-opacity:0.1;fill:hsl(0,100%,50%)"></rect><rect width="49" height="26" style="fill-opacity:0.1;fill:hsl(126,100%,50%)"></rect></g><g transform="translate(25,-3)"><text x="742">0</text><text x="396">7</text><text x="346">8</text><text x="198">11</text><text x="148">12</text><text x="99">13</text><text x="49">14</text><text>15</text></g><g transform="translate(25,18)"><text x="569"><tspan>XDATA / XDATA_2 nibble write mask</tspan></text><text x="272"><tspan>intrrupt enable</tspan></text><text x="124"><tspan>boot config</tspan></text><text x="49"><tspan>boot</tspan></text><text><tspan>busy</tspan></text></g><g transform="translate(25,39)"><g><text x="569"><tspan>[7:4] for XDATA, [3:0] for XDATA_2</tspan></text></g><g><text x="272"><tspan>[11] = vsync</tspan></text><text x="272" y="14"><tspan>[10] = copper</tspan></text><text x="272" y="28"><tspan>[09] = draw done</tspan></text><text x="272" y="42"><tspan>[08] = audio</tspan></text></g><g><text x="124"><tspan>00 = 640x480</tspan></text><text x="124" y="14"><tspan>01 = 848x480</tspan></text><text x="124" y="28"><tspan>10 = custom2</tspan></text><text x="124" y="42"><tspan>11 = custom3</tspan></text></g><g><text x="49"><tspan>1 =</tspan></text><text x="49" y="14"><tspan>boot</tspan></text><text x="49" y="28"><tspan>FPGA</tspan></text></g><g><text><tspan>0 = idle</tspan></text><text y="14"><tspan>1 = busy</tspan></text><text y="28"><tspan>drawing</tspan></text><g><text y="42">0</text></g></g></g></g></g></g></svg>