<?xml version="1.0" standalone="no"?>
<!DOCTYPE svg PUBLIC "-//W3C//DTD SVG 1.1//EN" "http://www.w3.org/Graphics/SVG/1.1/DTD/svg11.dtd">
<!-- Created with WaveDrom -->
<svg xmlns="http://www.w3.org/2000/svg" xmlns:xlink="http://www.w3.org/1999/xlink" width="800" height="56" style="background-color:white" style="background-color:white" viewBox="0 0 800 56" class="WaveDrom"><g transform="translate(0.5,0.5)" text-anchor="middle" font-size="14" font-family="sans-serif" font-weight="normal"><g transform="translate(4,14)"><g stroke="black" stroke-width="1" stroke-linecap="round"><line x2="791"/><line y2="26"/><line x2="791" y1="26" y2="26"/><line x1="791" x2="791" y2="26"/><line x1="742" x2="742" y2="3"/><line x1="742" x2="742" y1="26" y2="23"/><line x1="692" x2="692" y2="3"/><line x1="692" x2="692" y1="26" y2="23"/><line x1="643" x2="643" y2="3"/><line x1="643" x2="643" y1="26" y2="23"/><line x1="593" x2="593" y2="3"/><line x1="593" x2="593" y1="26" y2="23"/><line x1="544" x2="544" y2="3"/><line x1="544" x2="544" y1="26" y2="23"/><line x1="494" x2="494" y2="3"/><line x1="494" x2="494" y1="26" y2="23"/><line x1="445" x2="445" y2="3"/><line x1="445" x2="445" y1="26" y2="23"/><line x1="396" x2="396" y2="3"/><line x1="396" x2="396" y1="26" y2="23"/><line x1="346" x2="346" y2="3"/><line x1="346" x2="346" y1="26" y2="23"/><line x1="297" x2="297" y2="3"/><line x1="297" x2="297" y1="26" y2="23"/><line x1="247" x2="247" y2="26"/><line x1="198" x2="198" y2="3"/><line x1="198" x2="198" y1="26" y2="23"/><line x1="148" x2="148" y2="3"/><line x1="148" x2="148" y1="26" y2="23"/><line x1="99" x2="99" y2="3"/><line x1="99" x2="99" y1="26" y2="23"/><line x1="49" x2="49" y2="3"/><line x1="49" x2="49" y1="26" y2="23"/></g><g><g><rect x="247" width="544" height="26" style="fill-opacity:0.1;fill:hsl(170,100%,50%)"/><rect width="247" height="26" style="fill-opacity:0.1"/></g><g transform="translate(25,-9)"><g transform="translate(742)"><text y="6">0</text></g><g transform="translate(247)"><text y="6">10</text></g><g transform="translate(198)"><text y="6">11</text></g><g transform="translate(0)"><text y="6">15</text></g></g><g transform="translate(25,13)"><g transform="translate(494)"><text y="6"><tspan>video window bottom</tspan></text></g></g><g transform="translate(25,33)"><g><g transform="translate(494)"><text y="6"><tspan>bottom line of video display window (inclusive)</tspan></text></g></g></g></g></g></g></svg>