<svg xmlns="http://www.w3.org/2000/svg" xmlns:xlink="http://www.w3.org/1999/xlink" width="800" height="84" viewBox="0 0 800 84" class="WaveDrom"><g transform="translate(0.5,0.5)" text-anchor="middle" font-size="14" font-family="sans-serif" font-weight="normal"><g transform="translate(4,21)"><g stroke="black" stroke-width="1" stroke-linecap="round"><line x2="791"></line><line y2="31"></line><line x2="791" y1="31" y2="31"></line><line x1="791" x2="791" y2="31"></line><line x1="742" x2="742" y2="3"></line><line x1="742" x2="742" y1="31" y2="28"></line><line x1="692" x2="692" y2="3"></line><line x1="692" x2="692" y1="31" y2="28"></line><line x1="643" x2="643" y2="3"></line><line x1="643" x2="643" y1="31" y2="28"></line><line x1="593" x2="593" y2="31"></line><line x1="544" x2="544" y2="3"></line><line x1="544" x2="544" y1="31" y2="28"></line><line x1="494" x2="494" y2="3"></line><line x1="494" x2="494" y1="31" y2="28"></line><line x1="445" x2="445" y2="3"></line><line x1="445" x2="445" y1="31" y2="28"></line><line x1="396" x2="396" y2="31"></line><line x1="346" x2="346" y2="3"></line><line x1="346" x2="346" y1="31" y2="28"></line><line x1="297" x2="297" y2="31"></line><line x1="247" x2="247" y2="3"></line><line x1="247" x2="247" y1="31" y2="28"></line><line x1="198" x2="198" y2="3"></line><line x1="198" x2="198" y1="31" y2="28"></line><line x1="148" x2="148" y2="3"></line><line x1="148" x2="148" y1="31" y2="28"></line><line x1="99" x2="99" y2="3"></line><line x1="99" x2="99" y1="31" y2="28"></line><line x1="49" x2="49" y2="3"></line><line x1="49" x2="49" y1="31" y2="28"></line></g><g><g><rect x="593" width="198" height="31" field="vertical tile scroll" style="fill-opacity:0.1;fill:hsl(45,100%,50%)"></rect><rect x="396" width="198" height="31" field="0" style="fill-opacity:0.1"></rect><rect x="297" width="99" height="31" field="vert rep scroll" style="fill-opacity:0.1;fill:hsl(126,100%,50%)"></rect><rect width="297" height="31" field="0" style="fill-opacity:0.1"></rect></g><g transform="translate(25,-11)"><g transform="translate(742)"><text y="6">0</text></g><g transform="translate(593)"><text y="6">3</text></g><g transform="translate(544)"><text y="6">4</text></g><g transform="translate(396)"><text y="6">7</text></g><g transform="translate(346)"><text y="6">8</text></g><g transform="translate(297)"><text y="6">9</text></g><g transform="translate(247)"><text y="6">10</text></g><g transform="translate(0)"><text y="6">15</text></g></g><g transform="translate(25,15)"><g transform="translate(667)"><text y="6"><tspan>vertical tile scroll</tspan></text></g><g transform="translate(470)"><text y="6"><tspan>0</tspan></text></g><g transform="translate(321)"><text y="6"><tspan>vert rep scroll</tspan></text></g><g transform="translate(124)"><text y="6"><tspan>0</tspan></text></g></g><g transform="translate(25,39)"><g><g transform="translate(667)"><text y="6"><tspan>0-15 vertical tile start line</tspan></text></g><g transform="translate(667,14)"><text y="6"><tspan>(lines skipped before top edge)</tspan></text></g></g><g><g transform="translate(321)"><text y="6"><tspan>0-3 native lines</tspan></text></g><g transform="translate(321,14)"><text y="6"><tspan>(v repeat scroll)</tspan></text></g></g></g></g></g></g></svg>