<svg xmlns="http://www.w3.org/2000/svg" xmlns:xlink="http://www.w3.org/1999/xlink" width="800" height="98" viewBox="0 0 800 98" class="WaveDrom"><g transform="translate(0.5,0.5)" text-anchor="middle" font-size="14" font-family="sans-serif" font-weight="normal"><g transform="translate(4,21)"><g stroke="black" stroke-width="1" stroke-linecap="round"><line x2="791"></line><line y2="31"></line><line x2="791" y1="31" y2="31"></line><line x1="791" x2="791" y2="31"></line><line x1="742" x2="742" y2="31"></line><line x1="692" x2="692" y2="31"></line><line x1="643" x2="643" y2="3"></line><line x1="643" x2="643" y1="31" y2="28"></line><line x1="593" x2="593" y2="3"></line><line x1="593" x2="593" y1="31" y2="28"></line><line x1="544" x2="544" y2="3"></line><line x1="544" x2="544" y1="31" y2="28"></line><line x1="494" x2="494" y2="3"></line><line x1="494" x2="494" y1="31" y2="28"></line><line x1="445" x2="445" y2="3"></line><line x1="445" x2="445" y1="31" y2="28"></line><line x1="396" x2="396" y2="3"></line><line x1="396" x2="396" y1="31" y2="28"></line><line x1="346" x2="346" y2="3"></line><line x1="346" x2="346" y1="31" y2="28"></line><line x1="297" x2="297" y2="3"></line><line x1="297" x2="297" y1="31" y2="28"></line><line x1="247" x2="247" y2="3"></line><line x1="247" x2="247" y1="31" y2="28"></line><line x1="198" x2="198" y2="3"></line><line x1="198" x2="198" y1="31" y2="28"></line><line x1="148" x2="148" y2="3"></line><line x1="148" x2="148" y1="31" y2="28"></line><line x1="99" x2="99" y2="3"></line><line x1="99" x2="99" y1="31" y2="28"></line><line x1="49" x2="49" y2="3"></line><line x1="49" x2="49" y1="31" y2="28"></line></g><g><g><rect x="742" width="49" height="31" field="8 bpp" style="fill-opacity:0.1;fill:hsl(80,100%,50%)"></rect><rect x="692" width="49" height="31" field="nomask" style="fill-opacity:0.1;fill:hsl(170,100%,50%)"></rect><rect width="692" height="31" field="0" style="fill-opacity:0.1"></rect></g><g transform="translate(25,-11)"><g transform="translate(742)"><text y="6">0</text></g><g transform="translate(692)"><text y="6">1</text></g><g transform="translate(643)"><text y="6">2</text></g><g transform="translate(0)"><text y="6">15</text></g></g><g transform="translate(25,15)"><g transform="translate(742)"><text y="6"><tspan>8 bpp</tspan></text></g><g transform="translate(692)"><text y="6"><tspan>nomask</tspan></text></g><g transform="translate(321)"><text y="6"><tspan>0</tspan></text></g></g><g transform="translate(25,39)"><g><g transform="translate(742)"><text y="6"><tspan>8-BPP</tspan></text></g><g transform="translate(742,14)"><text y="6"><tspan>pixel</tspan></text></g><g transform="translate(742,28)"><text y="6"><tspan>mask</tspan></text></g></g><g><g transform="translate(692)"><text y="6"><tspan>no</tspan></text></g><g transform="translate(692,14)"><text y="6"><tspan>pixel</tspan></text></g><g transform="translate(692,28)"><text y="6"><tspan>mask</tspan></text></g></g><g><g transform="translate(321)"><text y="6"><tspan>(write updates PIXEL_BASE, PIXEL_WIDTH with PIXEL_X, PIXEL_Y and sets mask options)</tspan></text></g></g></g></g></g></g></svg>