<svg xmlns="http://www.w3.org/2000/svg" xmlns:xlink="http://www.w3.org/1999/xlink" width="800" height="140" style="background-color:white" viewBox="0 0 800 140" class="WaveDrom"><g transform="translate(0.5,0.5)" text-anchor="middle" font-size="14" font-family="sans-serif" font-weight="normal"><g transform="translate(4,14)"><g stroke="black" stroke-width="1" stroke-linecap="round"><line x2="791"></line><line y2="26"></line><line x2="791" y1="26" y2="26"></line><line x1="791" x2="791" y2="26"></line><line x1="742" x2="742" y2="3"></line><line x1="742" x2="742" y1="26" y2="23"></line><line x1="692" x2="692" y2="3"></line><line x1="692" x2="692" y1="26" y2="23"></line><line x1="643" x2="643" y2="3"></line><line x1="643" x2="643" y1="26" y2="23"></line><line x1="593" x2="593" y2="3"></line><line x1="593" x2="593" y1="26" y2="23"></line><line x1="544" x2="544" y2="3"></line><line x1="544" x2="544" y1="26" y2="23"></line><line x1="494" x2="494" y2="3"></line><line x1="494" x2="494" y1="26" y2="23"></line><line x1="445" x2="445" y2="26"></line><line x1="396" x2="396" y2="26"></line><line x1="346" x2="346" y2="3"></line><line x1="346" x2="346" y1="26" y2="23"></line><line x1="297" x2="297" y2="3"></line><line x1="297" x2="297" y1="26" y2="23"></line><line x1="247" x2="247" y2="3"></line><line x1="247" x2="247" y1="26" y2="23"></line><line x1="198" x2="198" y2="3"></line><line x1="198" x2="198" y1="26" y2="23"></line><line x1="148" x2="148" y2="3"></line><line x1="148" x2="148" y1="26" y2="23"></line><line x1="99" x2="99" y2="3"></line><line x1="99" x2="99" y1="26" y2="23"></line><line x1="49" x2="49" y2="26"></line></g><g><g><rect x="445" width="346" height="26" style="fill-opacity:0.1;fill:hsl(80,100%,50%)"></rect><rect x="396" width="49" height="26" style="fill-opacity:0.1"></rect><rect x="49" width="346" height="26" style="fill-opacity:0.1;fill:hsl(170,100%,50%)"></rect><rect width="49" height="26" style="fill-opacity:0.1;fill:hsl(0,100%,50%)"></rect></g><g transform="translate(25,-3)"><text x="742">0</text><text x="445">6</text><text x="396">7</text><text x="346">8</text><text x="49">14</text><text>15</text></g><g transform="translate(25,18)"><text x="593"><tspan>interrupt status/clear</tspan></text><g><text x="396">0</text></g><text x="198"><tspan>interrupt enable mask</tspan></text><text><tspan>reconfig</tspan></text></g><g transform="translate(25,39)"><g><text x="593"><tspan>[6] = blit unit ready</tspan></text><text x="593" y="14"><tspan>[5] = countdown timer</tspan></text><text x="593" y="28"><tspan>[4] = vblank/copper</tspan></text><text x="593" y="42"><tspan>[3] = audio 3 ready</tspan></text><text x="593" y="56"><tspan>[2] = audio 2 ready</tspan></text><text x="593" y="70"><tspan>[1] = audio 1 ready</tspan></text><text x="593" y="84"><tspan>[0] = audio 0 ready</tspan></text></g><g><text x="198"><tspan>[14] = blit unit ready</tspan></text><text x="198" y="14"><tspan>[13] = countdown timer</tspan></text><text x="198" y="28"><tspan>[12] = vblank/copper</tspan></text><text x="198" y="42"><tspan>[11] = audio 3 ready</tspan></text><text x="198" y="56"><tspan>[10] = audio 2 ready</tspan></text><text x="198" y="70"><tspan>[9] = audio 1 ready</tspan></text><text x="198" y="84"><tspan>[8] = audio 0 ready</tspan></text></g><g><text><tspan>write 1</tspan></text><text y="14"><tspan>to force</tspan></text><text y="28"><tspan>reconfig</tspan></text><text y="42"><tspan>to config</tspan></text><text y="56"><tspan>in bits</tspan></text><text y="70"><tspan>[9:8] of</tspan></text><text y="84"><tspan>mask</tspan></text></g></g></g></g></g></svg>