<svg xmlns="http://www.w3.org/2000/svg" xmlns:xlink="http://www.w3.org/1999/xlink" width="800" height="42" style="background-color:white" style="background-color:white" viewBox="0 0 800 42" class="WaveDrom"><g transform="translate(0.5,0.5)" text-anchor="middle" font-size="14" font-family="sans-serif" font-weight="normal"><g transform="translate(4,14)"><g stroke="black" stroke-width="1" stroke-linecap="round"><line x2="791"></line><line y2="26"></line><line x2="791" y1="26" y2="26"></line><line x1="791" x2="791" y2="26"></line><line x1="742" x2="742" y2="3"></line><line x1="742" x2="742" y1="26" y2="23"></line><line x1="692" x2="692" y2="3"></line><line x1="692" x2="692" y1="26" y2="23"></line><line x1="643" x2="643" y2="3"></line><line x1="643" x2="643" y1="26" y2="23"></line><line x1="593" x2="593" y2="3"></line><line x1="593" x2="593" y1="26" y2="23"></line><line x1="544" x2="544" y2="3"></line><line x1="544" x2="544" y1="26" y2="23"></line><line x1="494" x2="494" y2="3"></line><line x1="494" x2="494" y1="26" y2="23"></line><line x1="445" x2="445" y2="3"></line><line x1="445" x2="445" y1="26" y2="23"></line><line x1="396" x2="396" y2="3"></line><line x1="396" x2="396" y1="26" y2="23"></line><line x1="346" x2="346" y2="3"></line><line x1="346" x2="346" y1="26" y2="23"></line><line x1="297" x2="297" y2="3"></line><line x1="297" x2="297" y1="26" y2="23"></line><line x1="247" x2="247" y2="3"></line><line x1="247" x2="247" y1="26" y2="23"></line><line x1="198" x2="198" y2="3"></line><line x1="198" x2="198" y1="26" y2="23"></line><line x1="148" x2="148" y2="3"></line><line x1="148" x2="148" y1="26" y2="23"></line><line x1="99" x2="99" y2="3"></line><line x1="99" x2="99" y1="26" y2="23"></line><line x1="49" x2="49" y2="3"></line><line x1="49" x2="49" y1="26" y2="23"></line></g><g><g><rect width="791" height="26" style="fill-opacity:0.1;fill:hsl(170,100%,50%)"></rect></g><g transform="translate(25,-3)"><text x="742">0</text><text>15</text></g><g transform="translate(25,18)"><text x="371"><tspan>high 16-bits of Git short hash identifier</tspan></text></g><g transform="translate(25,39)"></g></g></g></g></svg>