<svg xmlns="http://www.w3.org/2000/svg" xmlns:xlink="http://www.w3.org/1999/xlink" width="800" height="112" style="background-color:white" viewBox="0 0 800 112" class="WaveDrom"><g transform="translate(0.5,0.5)" text-anchor="middle" font-size="14" font-family="sans-serif" font-weight="normal"><g transform="translate(4,21)"><g stroke="black" stroke-width="1" stroke-linecap="round"><line x2="791"></line><line y2="31"></line><line x2="791" y1="31" y2="31"></line><line x1="791" x2="791" y2="31"></line><line x1="742" x2="742" y2="3"></line><line x1="742" x2="742" y1="31" y2="28"></line><line x1="692" x2="692" y2="3"></line><line x1="692" x2="692" y1="31" y2="28"></line><line x1="643" x2="643" y2="3"></line><line x1="643" x2="643" y1="31" y2="28"></line><line x1="593" x2="593" y2="31"></line><line x1="544" x2="544" y2="3"></line><line x1="544" x2="544" y1="31" y2="28"></line><line x1="494" x2="494" y2="3"></line><line x1="494" x2="494" y1="31" y2="28"></line><line x1="445" x2="445" y2="3"></line><line x1="445" x2="445" y1="31" y2="28"></line><line x1="396" x2="396" y2="31"></line><line x1="346" x2="346" y2="31"></line><line x1="297" x2="297" y2="31"></line><line x1="247" x2="247" y2="31"></line><line x1="198" x2="198" y2="31"></line><line x1="148" x2="148" y2="31"></line><line x1="99" x2="99" y2="31"></line><line x1="49" x2="49" y2="31"></line></g><g><g><rect x="593" width="198" height="31" field="VRAM nibble write mask" style="fill-opacity:0.1;fill:hsl(0,100%,50%)"></rect><rect x="396" width="198" height="31" field="0" style="fill-opacity:0.1"></rect><rect x="346" width="49" height="31" field="8-bit" style="fill-opacity:0.1;fill:hsl(0,100%,50%)"></rect><rect x="297" width="49" height="31" field="nomask" style="fill-opacity:0.1;fill:hsl(0,100%,50%)"></rect><rect x="247" width="49" height="31" field="V-blank" style="fill-opacity:0.1;fill:hsl(80,100%,50%)"></rect><rect x="198" width="49" height="31" field="H-blank" style="fill-opacity:0.1;fill:hsl(170,100%,50%)"></rect><rect x="148" width="49" height="31" field="0" style="fill-opacity:0.1"></rect><rect x="99" width="49" height="31" field="busy" style="fill-opacity:0.1;fill:hsl(170,100%,50%)"></rect><rect x="49" width="49" height="31" field="full" style="fill-opacity:0.1;fill:hsl(80,100%,50%)"></rect><rect width="49" height="31" field="wait" style="fill-opacity:0.1;fill:hsl(45,100%,50%)"></rect></g><g transform="translate(25,-11)"><g transform="translate(742)"><text y="6">0</text></g><g transform="translate(593)"><text y="6">3</text></g><g transform="translate(544)"><text y="6">4</text></g><g transform="translate(396)"><text y="6">7</text></g><g transform="translate(346)"><text y="6">8</text></g><g transform="translate(297)"><text y="6">9</text></g><g transform="translate(247)"><text y="6">10</text></g><g transform="translate(198)"><text y="6">11</text></g><g transform="translate(148)"><text y="6">12</text></g><g transform="translate(99)"><text y="6">13</text></g><g transform="translate(49)"><text y="6">14</text></g><g transform="translate(0)"><text y="6">15</text></g></g><g transform="translate(25,15)"><g transform="translate(667)"><text y="6"><tspan>VRAM nibble write mask</tspan></text></g><g transform="translate(470)"><text y="6"><tspan>0</tspan></text></g><g transform="translate(346)"><text y="6"><tspan>8-bit</tspan></text></g><g transform="translate(297)"><text y="6"><tspan>nomask</tspan></text></g><g transform="translate(247)"><text y="6"><tspan>V-blank</tspan></text></g><g transform="translate(198)"><text y="6"><tspan>H-blank</tspan></text></g><g transform="translate(148)"><text y="6"><tspan>0</tspan></text></g><g transform="translate(99)"><text y="6"><tspan>busy</tspan></text></g><g transform="translate(49)"><text y="6"><tspan>full</tspan></text></g><g transform="translate(0)"><text y="6"><tspan>wait</tspan></text></g></g><g transform="translate(25,39)"><g><g transform="translate(667)"><text y="6"><tspan>XM_DATA/XM_DATA_2</tspan></text></g><g transform="translate(667,14)"><text y="6"><tspan>VRAM word nibble mask</tspan></text></g><g transform="translate(667,28)"><text y="6"><tspan>0=mask write to nibble</tspan></text></g><g transform="translate(667,42)"><text y="6"><tspan>1=allow write to nibble</tspan></text></g></g><g><g transform="translate(346)"><text y="6"><tspan>pix x/y</tspan></text></g><g transform="translate(346,14)"><text y="6"><tspan>8-bit</tspan></text></g><g transform="translate(346,28)"><text y="6"><tspan>even</tspan></text></g><g transform="translate(346,42)"><text y="6"><tspan>coord</tspan></text></g></g><g><g transform="translate(297)"><text y="6"><tspan>pix x/y</tspan></text></g><g transform="translate(297,14)"><text y="6"><tspan>no</tspan></text></g><g transform="translate(297,28)"><text y="6"><tspan>mask</tspan></text></g></g><g><g transform="translate(247)"><text y="6"><tspan>in</tspan></text></g><g transform="translate(247,14)"><text y="6"><tspan>V-blank</tspan></text></g><g transform="translate(247,28)"><text y="6"><tspan>0=no</tspan></text></g><g transform="translate(247,42)"><text y="6"><tspan>1=yes</tspan></text></g></g><g><g transform="translate(198)"><text y="6"><tspan>in</tspan></text></g><g transform="translate(198,14)"><text y="6"><tspan>H-blank</tspan></text></g><g transform="translate(198,28)"><text y="6"><tspan>0=no</tspan></text></g><g transform="translate(198,42)"><text y="6"><tspan>1=yes</tspan></text></g></g><g><g transform="translate(99)"><text y="6"><tspan>blit</tspan></text></g><g transform="translate(99,14)"><text y="6"><tspan>working</tspan></text></g><g transform="translate(99,28)"><text y="6"><tspan>0=idle</tspan></text></g><g transform="translate(99,42)"><text y="6"><tspan>1=busy</tspan></text></g></g><g><g transform="translate(49)"><text y="6"><tspan>blit</tspan></text></g><g transform="translate(49,14)"><text y="6"><tspan>queue</tspan></text></g><g transform="translate(49,28)"><text y="6"><tspan>0=ready</tspan></text></g><g transform="translate(49,42)"><text y="6"><tspan>1=wait</tspan></text></g></g><g><g transform="translate(0)"><text y="6"><tspan>memory</tspan></text></g><g transform="translate(0,14)"><text y="6"><tspan>wait</tspan></text></g><g transform="translate(0,28)"><text y="6"><tspan>0=ready</tspan></text></g><g transform="translate(0,42)"><text y="6"><tspan>1=wait</tspan></text></g></g></g></g></g></g></svg>