<svg xmlns="http://www.w3.org/2000/svg" xmlns:xlink="http://www.w3.org/1999/xlink" width="800" height="154" style="background-color:white" viewBox="0 0 800 154" class="WaveDrom"><g transform="translate(0.5,0.5)" text-anchor="middle" font-size="14" font-family="sans-serif" font-weight="normal"><g transform="translate(4,14)"><g stroke="black" stroke-width="1" stroke-linecap="round"><line x2="791"></line><line y2="26"></line><line x2="791" y1="26" y2="26"></line><line x1="791" x2="791" y2="26"></line><line x1="742" x2="742" y2="3"></line><line x1="742" x2="742" y1="26" y2="23"></line><line x1="692" x2="692" y2="3"></line><line x1="692" x2="692" y1="26" y2="23"></line><line x1="643" x2="643" y2="3"></line><line x1="643" x2="643" y1="26" y2="23"></line><line x1="593" x2="593" y2="3"></line><line x1="593" x2="593" y1="26" y2="23"></line><line x1="544" x2="544" y2="3"></line><line x1="544" x2="544" y1="26" y2="23"></line><line x1="494" x2="494" y2="3"></line><line x1="494" x2="494" y1="26" y2="23"></line><line x1="445" x2="445" y2="3"></line><line x1="445" x2="445" y1="26" y2="23"></line><line x1="396" x2="396" y2="3"></line><line x1="396" x2="396" y1="26" y2="23"></line><line x1="346" x2="346" y2="3"></line><line x1="346" x2="346" y1="26" y2="23"></line><line x1="297" x2="297" y2="3"></line><line x1="297" x2="297" y1="26" y2="23"></line><line x1="247" x2="247" y2="3"></line><line x1="247" x2="247" y1="26" y2="23"></line><line x1="198" x2="198" y2="3"></line><line x1="198" x2="198" y1="26" y2="23"></line><line x1="148" x2="148" y2="26"></line><line x1="99" x2="99" y2="3"></line><line x1="99" x2="99" y1="26" y2="23"></line><line x1="49" x2="49" y2="3"></line><line x1="49" x2="49" y1="26" y2="23"></line></g><g><g><rect x="148" width="643" height="26" style="fill-opacity:0.1;fill:hsl(170,100%,50%)"></rect><rect width="148" height="26" style="fill-opacity:0.1;fill:hsl(0,100%,50%)"></rect></g><g transform="translate(25,-3)"><text x="742">0</text><text x="148">12</text><text x="99">13</text><text>15</text></g><g transform="translate(25,18)"><text x="445"><tspan>XR register number / 13-bit XR offset</tspan></text><text x="49"><tspan>region</tspan></text></g><g transform="translate(25,39)"><g><text x="445"><tspan>config/video registers (0000-001F)</tspan></text><text x="445" y="14"><tspan>blit registers (2000-200F)</tspan></text><text x="445" y="28"><tspan>draw/poly registers (4000-400F)</tspan></text><text x="445" y="42"><tspan>unused (6000-7FFF)</tspan></text><text x="445" y="56"><tspan>512-word color memory (8000-81FF)</tspan></text><text x="445" y="70"><tspan>5K-word tile memory (A000-B3FF)</tspan></text><text x="445" y="84"><tspan>2K-word copper memory (C000-C7FF)</tspan></text><text x="445" y="98"><tspan>unused (E000-FFFF)</tspan></text></g><g><g><text x="99">0</text><text x="49">0</text><text>0</text></g><g><text x="99" y="14">1</text><text x="49" y="14">0</text><text y="14">0</text></g><g><text x="99" y="28">0</text><text x="49" y="28">1</text><text y="28">0</text></g><g><text x="99" y="42">1</text><text x="49" y="42">1</text><text y="42">0</text></g><g><text x="99" y="56">0</text><text x="49" y="56">0</text><text y="56">1</text></g><g><text x="99" y="70">1</text><text x="49" y="70">0</text><text y="70">1</text></g><g><text x="99" y="84">0</text><text x="49" y="84">1</text><text y="84">1</text></g><g><text x="99" y="98">1</text><text x="49" y="98">1</text><text y="98">1</text></g></g></g></g></g></g></svg>