<svg xmlns="http://www.w3.org/2000/svg" xmlns:xlink="http://www.w3.org/1999/xlink" width="800" height="98" style="background-color:white" viewBox="0 0 800 98" class="WaveDrom"><g transform="translate(0.5,0.5)" text-anchor="middle" font-size="14" font-family="sans-serif" font-weight="normal"><g transform="translate(4,14)"><g stroke="black" stroke-width="1" stroke-linecap="round"><line x2="791"></line><line y2="26"></line><line x2="791" y1="26" y2="26"></line><line x1="791" x2="791" y2="26"></line><line x1="742" x2="742" y2="26"></line><line x1="692" x2="692" y2="3"></line><line x1="692" x2="692" y1="26" y2="23"></line><line x1="643" x2="643" y2="3"></line><line x1="643" x2="643" y1="26" y2="23"></line><line x1="593" x2="593" y2="26"></line><line x1="544" x2="544" y2="26"></line><line x1="494" x2="494" y2="26"></line><line x1="445" x2="445" y2="3"></line><line x1="445" x2="445" y1="26" y2="23"></line><line x1="396" x2="396" y2="26"></line><line x1="346" x2="346" y2="3"></line><line x1="346" x2="346" y1="26" y2="23"></line><line x1="297" x2="297" y2="3"></line><line x1="297" x2="297" y1="26" y2="23"></line><line x1="247" x2="247" y2="3"></line><line x1="247" x2="247" y1="26" y2="23"></line><line x1="198" x2="198" y2="3"></line><line x1="198" x2="198" y1="26" y2="23"></line><line x1="148" x2="148" y2="3"></line><line x1="148" x2="148" y1="26" y2="23"></line><line x1="99" x2="99" y2="3"></line><line x1="99" x2="99" y1="26" y2="23"></line><line x1="49" x2="49" y2="3"></line><line x1="49" x2="49" y1="26" y2="23"></line></g><g><g><rect x="742" width="49" height="26" style="fill-opacity:0.1;fill:hsl(80,100%,50%)"></rect><rect x="593" width="148" height="26" style="fill-opacity:0.1"></rect><rect x="544" width="49" height="26" style="fill-opacity:0.1;fill:hsl(170,100%,50%)"></rect><rect x="494" width="49" height="26" style="fill-opacity:0.1;fill:hsl(170,100%,50%)"></rect><rect x="396" width="99" height="26" style="fill-opacity:0.1"></rect><rect width="396" height="26" style="fill-opacity:0.1;fill:hsl(170,100%,50%)"></rect></g><g transform="translate(25,-3)"><text x="742">0</text><text x="692">1</text><text x="593">3</text><text x="544">4</text><text x="494">5</text><text x="445">6</text><text x="396">7</text><text x="346">8</text><text>15</text></g><g transform="translate(25,18)"><text x="742"><tspan>Sconst</tspan></text><g><text x="692">0</text><text x="643">0</text><text x="593">0</text></g><text x="544"><tspan>transp</tspan></text><text x="494"><tspan>transp8</tspan></text><g><text x="445">0</text><text x="396">0</text></g><text x="173"><tspan>4/8-bit transparency value(s) T</tspan></text></g><g transform="translate(25,39)"><g><text x="742"><tspan>S term</tspan></text><text x="742" y="14"><tspan>0=mem</tspan></text><text x="742" y="28"><tspan>1=const</tspan></text></g><g><text x="544"><tspan>transp.</tspan></text><text x="544" y="14"><tspan>testing</tspan></text><text x="544" y="28"><tspan>0=off</tspan></text><text x="544" y="42"><tspan>1=on</tspan></text></g><g><text x="494"><tspan>transp.</tspan></text><text x="494" y="14"><tspan>mode</tspan></text><text x="494" y="28"><tspan>0=4-bit</tspan></text><text x="494" y="42"><tspan>1=8-bit</tspan></text></g><g><text x="173"><tspan>even/odd 4-bit transparent values for 4-bit mode</tspan></text><text x="173" y="14"><tspan>or 8-bit transparent value for 8-bit mode</tspan></text><text x="173" y="28"><tspan>(tested against S term)</tspan></text></g></g></g></g></g></svg>