<svg xmlns="http://www.w3.org/2000/svg" xmlns:xlink="http://www.w3.org/1999/xlink" width="800" height="112" style="background-color:white" viewBox ="0 0 800 112" class="WaveDrom"><g transform="translate(0.5,0.5)" text-anchor="middle" font-size="14" font-family="sans-serif" font-weight="normal"><g transform="translate(4,21)"><g stroke="black" stroke-width="1" stroke-linecap="round"><line x2="791"></line><line y2="31"></line><line x2="791" y1="31" y2="31"></line><line x1="791" x2="791" y2="31"></line><line x1="742" x2="742" y2="3"></line><line x1="742" x2="742" y1="31" y2="28"></line><line x1="692" x2="692" y2="31"></line><line x1="643" x2="643" y2="3"></line><line x1="643" x2="643" y1="31" y2="28"></line><line x1="593" x2="593" y2="31"></line><line x1="544" x2="544" y2="3"></line><line x1="544" x2="544" y1="31" y2="28"></line><line x1="494" x2="494" y2="31"></line><line x1="445" x2="445" y2="31"></line><line x1="396" x2="396" y2="31"></line><line x1="346" x2="346" y2="3"></line><line x1="346" x2="346" y1="31" y2="28"></line><line x1="297" x2="297" y2="3"></line><line x1="297" x2="297" y1="31" y2="28"></line><line x1="247" x2="247" y2="3"></line><line x1="247" x2="247" y1="31" y2="28"></line><line x1="198" x2="198" y2="3"></line><line x1="198" x2="198" y1="31" y2="28"></line><line x1="148" x2="148" y2="3"></line><line x1="148" x2="148" y1="31" y2="28"></line><line x1="99" x2="99" y2="3"></line><line x1="99" x2="99" y1="31" y2="28"></line><line x1="49" x2="49" y2="3"></line><line x1="49" x2="49" y1="31" y2="28"></line></g><g><g><rect x="692" width="99" height="31" field="V repeat" style="fill-opacity:0.1;fill:hsl(126,100%,50%)"></rect><rect x="593" width="99" height="31" field="H repeat" style="fill-opacity:0.1;fill:hsl(126,100%,50%)"></rect><rect x="494" width="99" height="31" field="bits-per-pixel" style="fill-opacity:0.1;fill:hsl(80,100%,50%)"></rect><rect x="445" width="49" height="31" field="bitmap" style="fill-opacity:0.1;fill:hsl(45,100%,50%)"></rect><rect x="396" width="49" height="31" field="blank" style="fill-opacity:0.1;fill:hsl(0,100%,50%)"></rect><rect width="396" height="31" field="colorbase" style="fill-opacity:0.1;fill:hsl(170,100%,50%)"></rect></g><g transform="translate(25,-11)"><g transform="translate(742)"><text y="6">0</text></g><g transform="translate(692)"><text y="6">1</text></g><g transform="translate(643)"><text y="6">2</text></g><g transform="translate(593)"><text y="6">3</text></g><g transform="translate(544)"><text y="6">4</text></g><g transform="translate(494)"><text y="6">5</text></g><g transform="translate(445)"><text y="6">6</text></g><g transform="translate(396)"><text y="6">7</text></g><g transform="translate(346)"><text y="6">8</text></g><g transform="translate(0)"><text y="6">15</text></g></g><g transform="translate(25,15)"><g transform="translate(717)"><text y="6"><tspan>V repeat</tspan></text></g><g transform="translate(618)"><text y="6"><tspan>H repeat</tspan></text></g><g transform="translate(519)"><text y="6"><tspan>bits-per-pixel</tspan></text></g><g transform="translate(445)"><text y="6"><tspan>bitmap</tspan></text></g><g transform="translate(396)"><text y="6"><tspan>blank</tspan></text></g><g transform="translate(173)"><text y="6"><tspan>colorbase</tspan></text></g></g><g transform="translate(25,39)"><g><g transform="translate(717)"><text y="6"><tspan>00=1x tall</tspan></text></g><g transform="translate(717,14)"><text y="6"><tspan>01=2x tall</tspan></text></g><g transform="translate(717,28)"><text y="6"><tspan>10=3x tall</tspan></text></g><g transform="translate(717,42)"><text y="6"><tspan>11=4x tall</tspan></text></g></g><g><g transform="translate(618)"><text y="6"><tspan>00=1x wide</tspan></text></g><g transform="translate(618,14)"><text y="6"><tspan>01=2x wide</tspan></text></g><g transform="translate(618,28)"><text y="6"><tspan>10=3x wide</tspan></text></g><g transform="translate(618,42)"><text y="6"><tspan>11=4x wide</tspan></text></g></g><g><g transform="translate(519)"><text y="6"><tspan>00=1-bpp</tspan></text></g><g transform="translate(519,14)"><text y="6"><tspan>01=4-bpp</tspan></text></g><g transform="translate(519,28)"><text y="6"><tspan>10=8-bpp</tspan></text></g><g transform="translate(519,42)"><text y="6"><tspan>11=reserved</tspan></text></g></g><g><g transform="translate(445)"><text y="6"><tspan>0=tiled</tspan></text></g><g transform="translate(445,14)"><text y="6"><tspan>1=bitmap</tspan></text></g></g><g><g transform="translate(396)"><text y="6"><tspan>0=on</tspan></text></g><g transform="translate(396,14)"><text y="6"><tspan></tspan></text></g><g transform="translate(396,28)"><text y="6"><tspan>1=playfield</tspan></text></g><g transform="translate(396,42)"><text y="6"><tspan>blanked</tspan></text></g></g><g><g transform="translate(173)"><text y="6"><tspan>exclusive-OR'd with result playfield</tspan></text></g><g transform="translate(173,14)"><text y="6"><tspan>color index as final step</tspan></text></g><g transform="translate(173,28)"><text y="6"><tspan>before colormap look-up</tspan></text></g></g></g></g></g></g></svg>