<svg xmlns="http://www.w3.org/2000/svg" xmlns:xlink="http://www.w3.org/1999/xlink" width="800" height="126" viewBox="0 0 800 126" class="WaveDrom"><g transform="translate(0.5,0.5)" text-anchor="middle" font-size="14" font-family="sans-serif" font-weight="normal"><g transform="translate(4,14)"><g stroke="black" stroke-width="1" stroke-linecap="round"><line x2="791"></line><line y2="26"></line><line x2="791" y1="26" y2="26"></line><line x1="791" x2="791" y2="26"></line><line x1="742" x2="742" y2="3"></line><line x1="742" x2="742" y1="26" y2="23"></line><line x1="692" x2="692" y2="3"></line><line x1="692" x2="692" y1="26" y2="23"></line><line x1="643" x2="643" y2="3"></line><line x1="643" x2="643" y1="26" y2="23"></line><line x1="593" x2="593" y2="26"></line><line x1="544" x2="544" y2="26"></line><line x1="494" x2="494" y2="26"></line><line x1="445" x2="445" y2="26"></line><line x1="396" x2="396" y2="26"></line><line x1="346" x2="346" y2="3"></line><line x1="346" x2="346" y1="26" y2="23"></line><line x1="297" x2="297" y2="3"></line><line x1="297" x2="297" y1="26" y2="23"></line><line x1="247" x2="247" y2="3"></line><line x1="247" x2="247" y1="26" y2="23"></line><line x1="198" x2="198" y2="26"></line><line x1="148" x2="148" y2="26"></line><line x1="99" x2="99" y2="3"></line><line x1="99" x2="99" y1="26" y2="23"></line><line x1="49" x2="49" y2="26"></line></g><g><g><rect x="593" width="198" height="26" style="fill-opacity:0.1;fill:hsl(170,100%,50%)"></rect><rect x="544" width="49" height="26" style="fill-opacity:0.1;fill:hsl(126,100%,50%)"></rect><rect x="494" width="49" height="26" style="fill-opacity:0.1;fill:hsl(80,100%,50%)"></rect><rect x="445" width="49" height="26" style="fill-opacity:0.1;fill:hsl(80,100%,50%)"></rect><rect x="396" width="49" height="26" style="fill-opacity:0.1;fill:hsl(126,100%,50%)"></rect><rect x="198" width="198" height="26" style="fill-opacity:0.1;fill:hsl(45,100%,50%)"></rect><rect x="148" width="49" height="26" style="fill-opacity:0.1"></rect><rect x="49" width="99" height="26" style="fill-opacity:0.1;fill:hsl(0,100%,50%)"></rect><rect width="49" height="26" style="fill-opacity:0.1;fill:hsl(0,100%,50%)"></rect></g><g transform="translate(25,-3)"><text x="742">0</text><text x="593">3</text><text x="544">4</text><text x="494">5</text><text x="445">6</text><text x="396">7</text><text x="346">8</text><text x="198">11</text><text x="148">12</text><text x="99">13</text><text x="49">14</text><text>15</text></g><g transform="translate(25,18)"><text x="667"><tspan>VRAM nibble write mask</tspan></text><text x="544"><tspan>rwrdinc</tspan></text><text x="494"><tspan>full</tspan></text><text x="445"><tspan>busy</tspan></text><text x="396"><tspan>wait</tspan></text><text x="272"><tspan>interrupt enable mask</tspan></text><text x="74"><tspan>boot config</tspan></text><text><tspan>boot</tspan></text></g><g transform="translate(25,39)"><g><text x="667"><tspan font-family="monospace">XM_DATA</tspan><tspan>/</tspan><tspan font-family="monospace">XM_DATA_2</tspan></text><text x="667" y="14"><tspan>VRAM word nibble mask</tspan></text><text x="667" y="28"><tspan font-family="monospace">0</tspan><tspan>=mask write to nibble</tspan></text><text x="667" y="42"><tspan font-family="monospace">1</tspan><tspan>=allow write to nibble</tspan></text></g><g><text x="544"><tspan>read of</tspan></text><text x="544" y="14"><tspan font-family="monospace">RW_DATA</tspan></text><text x="544" y="28"><tspan>adds</tspan></text><text x="544" y="42"><tspan font-family="monospace">RW_INCR</tspan></text><text x="544" y="56"><tspan font-family="monospace">0=no</tspan></text><text x="544" y="70"><tspan font-family="monospace">1=yes</tspan></text></g><g><text x="494"><tspan>blit</tspan></text><text x="494" y="14"><tspan>queue:</tspan></text><text x="494" y="28"><tspan font-family="monospace">0</tspan><tspan> ready</tspan></text><text x="494" y="42"><tspan font-family="monospace">1</tspan><tspan> full</tspan></text></g><g><text x="445"><tspan>blit</tspan></text><text x="445" y="14"><tspan>working</tspan></text><text x="445" y="28"><tspan font-family="monospace">0</tspan><tspan> done</tspan></text><text x="445" y="42"><tspan font-family="monospace">1</tspan><tspan> busy</tspan></text></g><g><text x="396"><tspan>memory</tspan></text><text x="396" y="14"><tspan>ready</tspan></text><text x="396" y="28"><tspan font-family="monospace">0</tspan><tspan> ready</tspan></text><text x="396" y="42"><tspan font-family="monospace">1</tspan><tspan> wait</tspan></text></g><g><text x="272"><tspan font-family="monospace">0=mask</tspan><tspan>, </tspan><tspan font-family="monospace">1=allow</tspan></text><text x="272" y="14"><tspan>[11]=vsync</tspan></text><text x="272" y="28"><tspan>[10]=copper</tspan></text><text x="272" y="42"><tspan>[9]=draw done</tspan></text><text x="272" y="56"><tspan>[8]=audio</tspan></text></g><g><text x="74"><tspan font-family="monospace">00=640x480</tspan></text><text x="74" y="14"><tspan font-family="monospace">01=848x480</tspan></text><text x="74" y="28"><tspan font-family="monospace">10=custom2 </tspan></text><text x="74" y="42"><tspan font-family="monospace">11=custom3 </tspan></text></g><g><text><tspan>write</tspan></text><text y="14"><tspan font-family="monospace">1</tspan><tspan> to</tspan></text><text y="28"><tspan>reboot</tspan></text><text y="42"><tspan>FPGA</tspan></text><text y="56"><tspan>to config</tspan></text></g></g></g></g></g></svg>