<svg xmlns="http://www.w3.org/2000/svg" xmlns:xlink="http://www.w3.org/1999/xlink" width="800" height="112" style="background-color:white" viewBox ="0 0 800 112" class="WaveDrom"><g transform="translate(0.5,0.5)" text-anchor="middle" font-size="14" font-family="sans-serif" font-weight="normal"><g transform="translate(4,21)"><g stroke="black" stroke-width="1" stroke-linecap="round"><line x2="791"></line><line y2="31"></line><line x2="791" y1="31" y2="31"></line><line x1="791" x2="791" y2="31"></line><line x1="742" x2="742" y2="3"></line><line x1="742" x2="742" y1="31" y2="28"></line><line x1="692" x2="692" y2="3"></line><line x1="692" x2="692" y1="31" y2="28"></line><line x1="643" x2="643" y2="3"></line><line x1="643" x2="643" y1="31" y2="28"></line><line x1="593" x2="593" y2="31"></line><line x1="544" x2="544" y2="31"></line><line x1="494" x2="494" y2="31"></line><line x1="445" x2="445" y2="31"></line><line x1="396" x2="396" y2="31"></line><line x1="346" x2="346" y2="3"></line><line x1="346" x2="346" y1="31" y2="28"></line><line x1="297" x2="297" y2="3"></line><line x1="297" x2="297" y1="31" y2="28"></line><line x1="247" x2="247" y2="3"></line><line x1="247" x2="247" y1="31" y2="28"></line><line x1="198" x2="198" y2="31"></line><line x1="148" x2="148" y2="3"></line><line x1="148" x2="148" y1="31" y2="28"></line><line x1="99" x2="99" y2="31"></line><line x1="49" x2="49" y2="3"></line><line x1="49" x2="49" y1="31" y2="28"></line></g><g><g><rect x="593" width="198" height="31" field="monitor resolution" style="fill-opacity:0.1;fill:hsl(45,100%,50%)"></rect><rect x="544" width="49" height="31" field="COPP" style="fill-opacity:0.1;fill:hsl(80,100%,50%)"></rect><rect x="494" width="49" height="31" field="BLIT" style="fill-opacity:0.1;fill:hsl(170,100%,50%)"></rect><rect x="445" width="49" height="31" field="PF_B" style="fill-opacity:0.1;fill:hsl(80,100%,50%)"></rect><rect x="396" width="49" height="31" field="UART" style="fill-opacity:0.1;fill:hsl(170,100%,50%)"></rect><rect x="198" width="198" height="31" field="audio channels" style="fill-opacity:0.1;fill:hsl(80,100%,50%)"></rect><rect x="99" width="99" height="31" field="config" style="fill-opacity:0.1;fill:hsl(45,100%,50%)"></rect><rect width="99" height="31" field="0" style="fill-opacity:0.1"></rect></g><g transform="translate(25,-11)"><g transform="translate(742)"><text y="6">0</text></g><g transform="translate(593)"><text y="6">3</text></g><g transform="translate(544)"><text y="6">4</text></g><g transform="translate(494)"><text y="6">5</text></g><g transform="translate(445)"><text y="6">6</text></g><g transform="translate(396)"><text y="6">7</text></g><g transform="translate(346)"><text y="6">8</text></g><g transform="translate(198)"><text y="6">11</text></g><g transform="translate(148)"><text y="6">12</text></g><g transform="translate(99)"><text y="6">13</text></g><g transform="translate(49)"><text y="6">14</text></g><g transform="translate(0)"><text y="6">15</text></g></g><g transform="translate(25,15)"><g transform="translate(667)"><text y="6"><tspan>monitor resolution</tspan></text></g><g transform="translate(544)"><text y="6"><tspan>COPP</tspan></text></g><g transform="translate(494)"><text y="6"><tspan>BLIT</tspan></text></g><g transform="translate(445)"><text y="6"><tspan>PF_B</tspan></text></g><g transform="translate(396)"><text y="6"><tspan>UART</tspan></text></g><g transform="translate(272)"><text y="6"><tspan>audio channels</tspan></text></g><g transform="translate(124)"><text y="6"><tspan>config</tspan></text></g><g transform="translate(25)"><text y="6"><tspan>0</tspan></text></g></g><g transform="translate(25,39)"><g><g transform="translate(667)"><text y="6"><tspan>0x0 = 640x480</tspan></text></g><g transform="translate(667,14)"><text y="6"><tspan>0x1 = 848x480</tspan></text></g><g transform="translate(667,28)"><text y="6"><tspan>(others reserved)</tspan></text></g></g><g><g transform="translate(544)"><text y="6"><tspan>copper</tspan></text></g></g><g><g transform="translate(494)"><text y="6"><tspan>blitter</tspan></text></g></g><g><g transform="translate(445)"><text y="6"><tspan>2nd</tspan></text></g><g transform="translate(445,14)"><text y="6"><tspan>playfield</tspan></text></g><g transform="translate(445,28)"><text y="6"><tspan>B</tspan></text></g></g><g><g transform="translate(396)"><text y="6"><tspan>UART</tspan></text></g></g><g><g transform="translate(272)"><text y="6"><tspan>number of</tspan></text></g><g transform="translate(272,14)"><text y="6"><tspan>audio channels</tspan></text></g><g transform="translate(272,28)"><text y="6"><tspan>0-4</tspan></text></g></g><g><g transform="translate(124)"><text y="6"><tspan>FPGA</tspan></text></g><g transform="translate(124,14)"><text y="6"><tspan>config</tspan></text></g><g transform="translate(124,28)"><text y="6"><tspan>number</tspan></text></g><g transform="translate(124,42)"><text y="6"><tspan>0-3</tspan></text></g></g></g></g></g></g></svg>