<?xml version="1.0" standalone="no"?>
<!DOCTYPE svg PUBLIC "-//W3C//DTD SVG 1.1//EN" "http://www.w3.org/Graphics/SVG/1.1/DTD/svg11.dtd">
<!-- Created with WaveDrom -->
<svg xmlns="http://www.w3.org/2000/svg" xmlns:xlink="http://www.w3.org/1999/xlink" width="800" height="182" style="background-color:white" viewBox="0 0 800 182" class="WaveDrom"><g transform="translate(0.5,0.5)" text-anchor="middle" font-size="14" font-family="sans-serif" font-weight="normal"><g transform="translate(4,14)"><g stroke="black" stroke-width="1" stroke-linecap="round"><line x2="791"/><line y2="26"/><line x2="791" y1="26" y2="26"/><line x1="791" x2="791" y2="26"/><line x1="742" x2="742" y2="3"/><line x1="742" x2="742" y1="26" y2="23"/><line x1="692" x2="692" y2="3"/><line x1="692" x2="692" y1="26" y2="23"/><line x1="643" x2="643" y2="3"/><line x1="643" x2="643" y1="26" y2="23"/><line x1="593" x2="593" y2="3"/><line x1="593" x2="593" y1="26" y2="23"/><line x1="544" x2="544" y2="3"/><line x1="544" x2="544" y1="26" y2="23"/><line x1="494" x2="494" y2="3"/><line x1="494" x2="494" y1="26" y2="23"/><line x1="445" x2="445" y2="3"/><line x1="445" x2="445" y1="26" y2="23"/><line x1="396" x2="396" y2="3"/><line x1="396" x2="396" y1="26" y2="23"/><line x1="346" x2="346" y2="3"/><line x1="346" x2="346" y1="26" y2="23"/><line x1="297" x2="297" y2="3"/><line x1="297" x2="297" y1="26" y2="23"/><line x1="247" x2="247" y2="3"/><line x1="247" x2="247" y1="26" y2="23"/><line x1="198" x2="198" y2="26"/><line x1="148" x2="148" y2="3"/><line x1="148" x2="148" y1="26" y2="23"/><line x1="99" x2="99" y2="26"/><line x1="49" x2="49" y2="3"/><line x1="49" x2="49" y1="26" y2="23"/></g><g><g><rect x="198" width="593" height="26" style="fill-opacity:0.1;fill:hsl(170,100%,50%)"/><rect x="99" width="99" height="26" style="fill-opacity:0.1"/><rect width="99" height="26" style="fill-opacity:0.1;fill:hsl(45,100%,50%)"/></g><g transform="translate(25,-9)"><g transform="translate(742)"><text y="6">0</text></g><g transform="translate(198)"><text y="6">11</text></g><g transform="translate(148)"><text y="6">12</text></g><g transform="translate(99)"><text y="6">13</text></g><g transform="translate(49)"><text y="6">14</text></g><g transform="translate(0)"><text y="6">15</text></g></g><g transform="translate(25,13)"><g transform="translate(470)"><text y="6"><tspan>register number / 12-bit XR address</tspan></text></g><g transform="translate(25)"><text y="6"><tspan>XR region</tspan></text></g></g><g transform="translate(25,33)"><g><g transform="translate(470)"><text y="6"><tspan>video / copper registers (0000-000F)</tspan></text></g><g transform="translate(470,14)"><text y="6"><tspan>read-only info registers (0010-001F)</tspan></text></g><g transform="translate(470,28)"><text y="6"><tspan>playfield-A registers (0020-002F)</tspan></text></g><g transform="translate(470,42)"><text y="6"><tspan>playfield-B registers (0030-003F)</tspan></text></g><g transform="translate(470,56)"><text y="6"><tspan>2D blit registers [TODO] (0040-004F)</tspan></text></g><g transform="translate(470,70)"><text y="6"><tspan>poly draw registers [TODO] (0050-005F)</tspan></text></g><g transform="translate(470,84)"><text y="6"><tspan>playfield-B registers (0030-003F)</tspan></text></g><g transform="translate(470,98)"><text y="6"><tspan>font memory (write-only 4000-8FFF)</tspan></text></g><g transform="translate(470,112)"><text y="6"><tspan>color memory (write-only 8000-80FF)</tspan></text></g><g transform="translate(470,126)"><text y="6"><tspan>copper memory (write-only C000-C???)</tspan></text></g></g><g><g transform="translate(25)"><text y="6"><tspan>00 =</tspan></text></g><g transform="translate(25,14)"><text y="6"><tspan>00 =</tspan></text></g><g transform="translate(25,28)"><text y="6"><tspan>00 =</tspan></text></g><g transform="translate(25,42)"><text y="6"><tspan>00 =</tspan></text></g><g transform="translate(25,56)"><text y="6"><tspan>00 =</tspan></text></g><g transform="translate(25,70)"><text y="6"><tspan>00 =</tspan></text></g><g transform="translate(25,84)"><text y="6"><tspan>01 =</tspan></text></g><g transform="translate(25,98)"><text y="6"><tspan>10 =</tspan></text></g><g transform="translate(25,112)"><text y="6"><tspan>11 =</tspan></text></g></g></g></g></g></g></svg>