<svg xmlns="http://www.w3.org/2000/svg" xmlns:xlink="http://www.w3.org/1999/xlink" width="800" height="98" style="background-color:white" viewBox="0 0 800 98" class="WaveDrom"><g transform="translate(0.5,0.5)" text-anchor="middle" font-size="14" font-family="sans-serif" font-weight="normal"><g transform="translate(4,14)"><g stroke="black" stroke-width="1" stroke-linecap="round"><line x2="791"></line><line y2="26"></line><line x2="791" y1="26" y2="26"></line><line x1="791" x2="791" y2="26"></line><line x1="742" x2="742" y2="3"></line><line x1="742" x2="742" y1="26" y2="23"></line><line x1="692" x2="692" y2="26"></line><line x1="643" x2="643" y2="3"></line><line x1="643" x2="643" y1="26" y2="23"></line><line x1="593" x2="593" y2="26"></line><line x1="544" x2="544" y2="3"></line><line x1="544" x2="544" y1="26" y2="23"></line><line x1="494" x2="494" y2="26"></line><line x1="445" x2="445" y2="26"></line><line x1="396" x2="396" y2="26"></line><line x1="346" x2="346" y2="3"></line><line x1="346" x2="346" y1="26" y2="23"></line><line x1="297" x2="297" y2="3"></line><line x1="297" x2="297" y1="26" y2="23"></line><line x1="247" x2="247" y2="3"></line><line x1="247" x2="247" y1="26" y2="23"></line><line x1="198" x2="198" y2="3"></line><line x1="198" x2="198" y1="26" y2="23"></line><line x1="148" x2="148" y2="3"></line><line x1="148" x2="148" y1="26" y2="23"></line><line x1="99" x2="99" y2="3"></line><line x1="99" x2="99" y1="26" y2="23"></line><line x1="49" x2="49" y2="3"></line><line x1="49" x2="49" y1="26" y2="23"></line></g><g><g><rect x="692" width="99" height="26" style="fill-opacity:0.1;fill:hsl(126,100%,50%)"></rect><rect x="593" width="99" height="26" style="fill-opacity:0.1;fill:hsl(126,100%,50%)"></rect><rect x="494" width="99" height="26" style="fill-opacity:0.1;fill:hsl(80,100%,50%)"></rect><rect x="445" width="49" height="26" style="fill-opacity:0.1;fill:hsl(45,100%,50%)"></rect><rect x="396" width="49" height="26" style="fill-opacity:0.1;fill:hsl(0,100%,50%)"></rect><rect width="396" height="26" style="fill-opacity:0.1;fill:hsl(170,100%,50%)"></rect></g><g transform="translate(25,-3)"><text x="742">0</text><text x="692">1</text><text x="643">2</text><text x="593">3</text><text x="544">4</text><text x="494">5</text><text x="445">6</text><text x="396">7</text><text x="346">8</text><text>15</text></g><g transform="translate(25,18)"><text x="717"><tspan>V repeat</tspan></text><text x="618"><tspan>H repeat</tspan></text><text x="519"><tspan>bits-per-pixel</tspan></text><text x="445"><tspan>bitmap</tspan></text><text x="396"><tspan>blank</tspan></text><text x="173"><tspan>colorbase</tspan></text></g><g transform="translate(25,39)"><g><text x="717"><tspan>00=1x tall</tspan></text><text x="717" y="14"><tspan>01=2x tall</tspan></text><text x="717" y="28"><tspan>10=3x tall</tspan></text><text x="717" y="42"><tspan>11=4x tall</tspan></text></g><g><text x="618"><tspan>00=1x wide</tspan></text><text x="618" y="14"><tspan>01=2x wide</tspan></text><text x="618" y="28"><tspan>10=3x wide</tspan></text><text x="618" y="42"><tspan>11=4x wide</tspan></text></g><g><text x="519"><tspan>00=1-bpp</tspan></text><text x="519" y="14"><tspan>01=4-bpp</tspan></text><text x="519" y="28"><tspan>10=8-bpp</tspan></text><text x="519" y="42"><tspan>11=(TBD)</tspan></text></g><g><text x="445"><tspan>0=tiled</tspan></text><text x="445" y="14"><tspan>1=bitmap</tspan></text></g><g><text x="396"><tspan>0=on</tspan></text><text x="396" y="14"><tspan>1=off</tspan></text></g><g><text x="173"><tspan>upper bits for color index</tspan></text><text x="173" y="14"><tspan>(when less than 8-bpp)</tspan></text></g></g></g></g></g></svg>