<svg xmlns="http://www.w3.org/2000/svg" xmlns:xlink="http://www.w3.org/1999/xlink" width="800" height="168" style="background-color:white" viewBox="0 0 800 168" class="WaveDrom"><g transform="translate(0.5,0.5)" text-anchor="middle" font-size="14" font-family="sans-serif" font-weight="normal"><g transform="translate(4,14)"><g stroke="black" stroke-width="1" stroke-linecap="round"><line x2="791"></line><line y2="26"></line><line x2="791" y1="26" y2="26"></line><line x1="791" x2="791" y2="26"></line><line x1="742" x2="742" y2="3"></line><line x1="742" x2="742" y1="26" y2="23"></line><line x1="692" x2="692" y2="3"></line><line x1="692" x2="692" y1="26" y2="23"></line><line x1="643" x2="643" y2="3"></line><line x1="643" x2="643" y1="26" y2="23"></line><line x1="593" x2="593" y2="3"></line><line x1="593" x2="593" y1="26" y2="23"></line><line x1="544" x2="544" y2="3"></line><line x1="544" x2="544" y1="26" y2="23"></line><line x1="494" x2="494" y2="3"></line><line x1="494" x2="494" y1="26" y2="23"></line><line x1="445" x2="445" y2="3"></line><line x1="445" x2="445" y1="26" y2="23"></line><line x1="396" x2="396" y2="3"></line><line x1="396" x2="396" y1="26" y2="23"></line><line x1="346" x2="346" y2="3"></line><line x1="346" x2="346" y1="26" y2="23"></line><line x1="297" x2="297" y2="3"></line><line x1="297" x2="297" y1="26" y2="23"></line><line x1="247" x2="247" y2="3"></line><line x1="247" x2="247" y1="26" y2="23"></line><line x1="198" x2="198" y2="26"></line><line x1="148" x2="148" y2="3"></line><line x1="148" x2="148" y1="26" y2="23"></line><line x1="99" x2="99" y2="26"></line><line x1="49" x2="49" y2="26"></line></g><g><g><rect x="198" width="593" height="26" style="fill-opacity:0.1;fill:hsl(170,100%,50%)"></rect><rect x="99" width="99" height="26" style="fill-opacity:0.1;fill:hsl(45,100%,50%)"></rect><rect x="49" width="49" height="26" style="fill-opacity:0.1"></rect><rect width="49" height="26" style="fill-opacity:0.1;fill:hsl(0,100%,50%)"></rect></g><g transform="translate(25,-3)"><text x="742">0</text><text x="198">11</text><text x="148">12</text><text x="99">13</text><text x="49">14</text><text>15</text></g><g transform="translate(25,18)"><text x="470"><tspan>XR register number / 12-bit XR offset</tspan></text><text x="124"><tspan>mem region</tspan></text><text><tspan>mem</tspan></text></g><g transform="translate(25,39)"><g><text x="470"><tspan>config / copper registers (0000-000F)</tspan></text><text x="470" y="14"><tspan>playfield mode registers (0010-001F)</tspan></text><text x="470" y="28"><tspan>2D blitter registers (0020-002F)</tspan></text><text x="470" y="42"><tspan>poly drawing registers (0030-003F)</tspan></text><text x="470" y="56"><tspan>256-word color memory (write-only 8000-80FF)</tspan></text><text x="470" y="70"><tspan>4K-word tile memory (write-only 9000-9FFF)</tspan></text><text x="470" y="84"><tspan>2K-word copper memory (write-only A000-A7FF)</tspan></text><text x="470" y="98"><tspan>256-word sprite memory (B000-B0FF)</tspan></text><text x="470" y="112"><tspan>unused (C000-FFFF)</tspan></text></g><g><g><text x="148">0</text><text x="99">0</text></g><g><text x="148" y="14">0</text><text x="99" y="14">0</text></g><g><text x="148" y="28">0</text><text x="99" y="28">0</text></g><g><text x="148" y="42">0</text><text x="99" y="42">0</text></g><g><text x="148" y="56">0</text><text x="99" y="56">0</text></g><g><text x="148" y="70">1</text><text x="99" y="70">0</text></g><g><text x="148" y="84">0</text><text x="99" y="84">1</text></g><g><text x="148" y="98">1</text><text x="99" y="98">1</text></g></g><g><g><text>0</text></g><g><text y="14">0</text></g><g><text y="28">0</text></g><g><text y="42">0</text></g><g><text y="56">1</text></g><g><text y="70">1</text></g><g><text y="84">1</text></g><g><text y="98">1</text></g></g></g></g></g></g></svg>